<svg xmlns="http://www.w3.org/2000/svg" xmlns:xlink="http://www.w3.org/1999/xlink" viewBox="0,0,256,256" width="48px" height="48px" fill-rule="nonzero"><defs><linearGradient x1="-10.294" y1="-10.294" x2="50.002" y2="50.002" gradientUnits="userSpaceOnUse" id="color-1"><stop offset="0" stop-color="#1d1d1d" stop-opacity="0"></stop><stop offset="1" stop-color="#262626"></stop></linearGradient><linearGradient x1="6.932" y1="9.182" x2="83.561" y2="100.504" gradientUnits="userSpaceOnUse" id="color-2"><stop offset="0" stop-color="#1d1d1d" stop-opacity="0"></stop><stop offset="1" stop-color="#262626"></stop></linearGradient></defs><g fill="none" fill-rule="nonzero" stroke="none" stroke-width="1" stroke-linecap="butt" stroke-linejoin="miter" stroke-miterlimit="10" stroke-dasharray="" stroke-dashoffset="0" font-family="none" font-weight="none" font-size="none" text-anchor="none" style="mix-blend-mode: normal"><g transform="scale(5.33333,5.33333)"><path d="M36,6h-24c-3.314,0 -6,2.686 -6,6v24c0,3.314 2.686,6 6,6h24c3.314,0 6,-2.686 6,-6v-24c0,-3.314 -2.686,-6 -6,-6zM17,36h-5v-15c0,-1.105 0.895,-2 2,-2h3zM15.122,16.925c-1.861,0.449 -3.496,-1.186 -3.047,-3.047c0.211,-0.875 0.928,-1.592 1.803,-1.803c1.861,-0.448 3.495,1.186 3.047,3.047c-0.211,0.875 -0.928,1.592 -1.803,1.803zM36,36h-3c-1.105,0 -2,-0.895 -2,-2v-6.83c0,-1.624 -1.216,-3.081 -2.839,-3.166c-1.73,-0.09 -3.161,1.286 -3.161,2.996v9h-5v-15c0,-1.105 0.895,-2 2,-2h3v2c0,0 1.5,-2 4.5,-2c3.866,0 6.5,2.768 6.5,7z" fill="url(#color-1)"></path><path d="M14,19h3v17h-5v-15c0,-1.105 0.895,-2 2,-2zM14.5,12c-1.381,0 -2.5,1.119 -2.5,2.5c0,1.381 1.119,2.5 2.5,2.5c1.381,0 2.5,-1.119 2.5,-2.5c0,-1.381 -1.119,-2.5 -2.5,-2.5zM29.5,19c-3,0 -4.5,2 -4.5,2v-2h-3c-1.105,0 -2,0.895 -2,2v15h5v-8.83c0,-1.624 1.216,-3.081 2.839,-3.166c1.73,-0.09 3.161,1.286 3.161,2.996v7c0,1.105 0.895,2 2,2h3v-10c0,-4.232 -2.634,-7 -6.5,-7z" fill="url(#color-2)"></path></g></g></svg>